# xmcd
#
# Track frame offsets: 
#        150
#        12634
#        26009
#        41421
#        55723
#        71175
#        93614
#        108869
#
# Disc length: 1669 seconds
#
# Revision: 0
# Processed by: cddbd v1.5.1PL2 Copyright (c) Steve Scherf et al.
# Submitted via: ExactAudioCopy v0.95b3
#
DISCID=67068308
DTITLE=Kentucky Myle - Kentucky Myle
DYEAR=2005
DGENRE=Country
TTITLE0=Wrong Place at the Wrong Time
TTITLE1=Grandson Jake
TTITLE2=Take Me Away
TTITLE3=Almost Home
TTITLE4=Change of Luck
TTITLE5=You're Not There
TTITLE6=Here Comes the Rain
TTITLE7=Let Me Be
EXTD=
EXTT0=
EXTT1=
EXTT2=
EXTT3=
EXTT4=
EXTT5=
EXTT6=
EXTT7=
PLAYORDER=
